<svg xmlns="http://www.w3.org/2000/svg" viewBox="0 0 320 320">
<rect width="320" height="320" rx="48" fill="#2a2a2a"/>
<rect x="20" y="20" width="280" height="280" rx="4" fill="none" stroke="#b8b0a0" stroke-width="2.5"/>
<rect x="65" y="65" width="12" height="12" rx="1" fill="#c8bfb0" opacity="0.5" transform="rotate(-1.5 71 71)"/>
<rect x="80" y="75" width="12" height="12" rx="1" fill="#a89f90" opacity="0.6" transform="rotate(1 86 81)"/>
<rect x="70" y="90" width="12" height="12" rx="1" fill="#908880" opacity="0.7" transform="rotate(-0.8 76 96)"/>
<rect x="90" y="85" width="12" height="12" rx="1" fill="#c8bfb0" opacity="0.65" transform="rotate(1.5 96 91)"/>
<rect x="85" y="105" width="12" height="12" rx="1" fill="#787068" opacity="0.8" transform="rotate(-1 91 111)"/>
<rect x="100" y="98" width="12" height="12" rx="1" fill="#a89f90" opacity="0.75" transform="rotate(0.5 106 104)"/>
<rect x="105" y="115" width="12" height="12" rx="1" fill="#c8bfb0" opacity="0.85" transform="rotate(-1.8 111 121)"/>
<rect x="95" y="125" width="12" height="12" rx="1" fill="#605850" opacity="0.9" transform="rotate(1.2 101 131)"/>
<rect x="115" y="120" width="12" height="12" rx="1" fill="#908880" opacity="0.9" transform="rotate(-0.5 121 126)"/>
<rect x="110" y="138" width="12" height="12" rx="1" fill="#a89f90" opacity="0.88" transform="rotate(1.8 116 144)"/>
<rect x="125" y="130" width="12" height="12" rx="1" fill="#c8bfb0" opacity="0.9" transform="rotate(-1.2 131 136)"/>
<rect x="120" y="150" width="12" height="12" rx="1" fill="#787068" opacity="0.85" transform="rotate(0.8 126 156)"/>
<rect x="135" y="142" width="12" height="12" rx="1" fill="#605850" opacity="0.9" transform="rotate(-2 141 148)"/>
<rect x="140" y="160" width="12" height="12" rx="1" fill="#c8bfb0" opacity="0.85" transform="rotate(1.5 146 166)"/>
<rect x="130" y="165" width="12" height="12" rx="1" fill="#908880" opacity="0.8" transform="rotate(-0.7 136 171)"/>
<rect x="155" y="170" width="12" height="12" rx="1" fill="#a89f90" opacity="0.75" transform="rotate(1 161 176)"/>
<rect x="150" y="185" width="12" height="12" rx="1" fill="#787068" opacity="0.7" transform="rotate(-1.5 156 191)"/>
<rect x="170" y="180" width="12" height="12" rx="1" fill="#c8bfb0" opacity="0.6" transform="rotate(0.5 176 186)"/>
<rect x="165" y="198" width="12" height="12" rx="1" fill="#605850" opacity="0.55" transform="rotate(-1 171 204)"/>
<rect x="185" y="195" width="12" height="12" rx="1" fill="#908880" opacity="0.45" transform="rotate(1.8 191 201)"/>
<rect x="180" y="215" width="12" height="12" rx="1" fill="#a89f90" opacity="0.38" transform="rotate(-0.5 186 221)"/>
<rect x="200" y="210" width="12" height="12" rx="1" fill="#c8bfb0" opacity="0.3" transform="rotate(1.2 206 216)"/>
<rect x="215" y="228" width="12" height="12" rx="1" fill="#787068" opacity="0.22" transform="rotate(-1.8 221 234)"/>
<rect x="230" y="242" width="12" height="12" rx="1" fill="#908880" opacity="0.18" transform="rotate(0.8 236 248)"/>
<rect x="248" y="258" width="12" height="12" rx="1" fill="#a89f90" opacity="0.15" transform="rotate(-1 254 264)"/>
<circle cx="275" cy="48" r="4" fill="#787068" opacity="0.4"/>
<circle cx="45" cy="275" r="4" fill="#787068" opacity="0.4"/>
</svg>
